<svg width="18" height="18" viewBox="0 0 18 18" fill="none" xmlns="http://www.w3.org/2000/svg">
<path fill-rule="evenodd" clip-rule="evenodd" d="M17.4558 0.485281C17.7059 0.73533 17.8463 1.07447 17.8463 1.42809C17.8463 1.78171 17.7059 2.12085 17.4558 2.3709L9.91334 9.91337C9.66329 10.1634 9.32415 10.3039 8.97053 10.3039C8.61691 10.3039 8.27777 10.1634 8.02772 9.91337L0.485251 2.3709C0.235203 2.12085 0.0947266 1.78171 0.0947266 1.42809C0.0947266 1.07447 0.235203 0.73533 0.485251 0.485281C0.7353 0.235233 1.07444 0.0947571 1.42806 0.0947571C1.78168 0.0947571 2.12082 0.235233 2.37087 0.485281L8.97053 7.08494L15.5702 0.485281C15.8202 0.235233 16.1594 0.0947571 16.513 0.0947571C16.8666 0.0947571 17.2058 0.235233 17.4558 0.485281Z" fill="#004080"/>
<path fill-rule="evenodd" clip-rule="evenodd" d="M8.02772 8.02789C8.27777 7.77784 8.61691 7.63736 8.97053 7.63736C9.32415 7.63736 9.66329 7.77784 9.91334 8.02789L17.4558 15.5704C17.7059 15.8204 17.8463 16.1595 17.8463 16.5132C17.8463 16.8668 17.7059 17.2059 17.4558 17.456C17.2058 17.706 16.8666 17.8465 16.513 17.8465C16.1594 17.8465 15.8202 17.706 15.5702 17.456L8.97053 10.8563L2.37087 17.456C2.12082 17.706 1.78168 17.8465 1.42806 17.8465C1.07444 17.8465 0.7353 17.706 0.485251 17.456C0.235203 17.2059 0.0947266 16.8668 0.0947266 16.5132C0.0947266 16.1595 0.235203 15.8204 0.485251 15.5704L8.02772 8.02789Z" fill="#004080"/>
</svg>
