<?xml version="1.0" encoding="UTF-8"?>
<svg width="142px" height="142px" viewBox="0 0 142 142" version="1.1" xmlns="http://www.w3.org/2000/svg" xmlns:xlink="http://www.w3.org/1999/xlink">
    <!-- Generator: Sketch 53.2 (72643) - https://sketchapp.com -->
    <title>community</title>
    <desc>Created with Sketch.</desc>
    <g id="Page-1" stroke="none" stroke-width="1" fill="none" fill-rule="evenodd">
        <g id="how_zom_works" transform="translate(-733.000000, -6778.000000)" fill-rule="nonzero">
            <g id="community" transform="translate(739.000000, 6784.000000)">
                <circle id="Oval" stroke="#7CDFFF" stroke-width="11" fill="#56CCF2" cx="65" cy="65" r="65"></circle>
                <path d="M56.5550274,61.4172148 C57.4982287,62.5926474 58.586497,63.5817991 59.8053078,64.3559713 C61.3869634,65.3594726 63.026628,65.8898784 64.6808171,65.9471889 C64.7968353,65.9471889 64.8984176,65.9615385 65.0145244,65.9615385 C65.1595914,65.9615385 65.2756982,65.9615385 65.4207652,65.9471889 C71.9503749,65.6461123 77,58.1486828 77,51.8553848 C77,45.3184081 71.6311921,40 65.0145244,40 C58.3833324,40 53,45.3184081 53,51.8553848 C53,55.0379074 54.2769086,58.5357688 56.3954361,61.2308466 C56.4534451,61.3025064 56.4970184,61.3598168 56.5550274,61.4172148 Z" id="Shape" fill="#FFFFFF"></path>
                <path d="M80.9972888,63.0648088 C81.5625832,63.8332829 82.212577,64.454088 82.9474425,64.9417475 C83.9508099,65.6216383 85.0248175,65.9615385 86.1270295,65.9615385 C90.1686173,65.9615385 93.32,61.2321617 93.32,57.1529978 C93.32,52.9999541 90.0838317,49.6153846 86.1270295,49.6153846 C82.156082,49.6153846 78.92,52.9999542 78.92,57.1529978 C78.92,59.1187002 79.6689246,61.3060415 80.9266486,62.9761352 C80.9407939,63.0056331 80.9689982,63.035221 80.9972888,63.0648088 Z" id="Shape" fill="#FFFFFF" opacity="0.5"></path>
                <path d="M38.7594053,63.0796028 C39.311093,63.8332829 39.9758812,64.4540881 40.6973056,64.9417475 C41.7157264,65.6216383 42.7907837,65.9615385 43.88,65.9615385 C47.9396966,65.9615385 51.08,61.2321617 51.08,57.1529978 C51.08,52.9999541 47.8548283,49.6153846 43.88,49.6153846 C39.9051717,49.6153846 36.68,52.9999542 36.68,57.1529978 C36.68,59.1187002 37.4297428,61.3060415 38.6745369,62.9761352 C38.7028551,63.0056331 38.731087,63.050015 38.7594053,63.0796028 Z" id="Shape" fill="#FFFFFF" opacity="0.5"></path>
                <path d="M93.3882046,64.0384615 C91.5323902,66.2886516 88.9136726,67.8539166 85.9069834,67.8539166 C85.1602457,67.8539166 84.432442,67.7435534 83.72,67.5599094 C87.0463368,70.561933 89.5922651,74.2982664 91.1791611,78.4615385 L99.5367119,78.4615385 C100.345522,78.4615385 101,77.8129881 101,77.0115045 C101,71.4629827 97.9282918,66.6203611 93.3882046,64.0384615 Z" id="Shape" fill="#FFFFFF" opacity="0.5"></path>
                <path d="M46.28,67.5465718 C45.5631666,67.7409159 44.8154529,67.8495538 44.0404186,67.8495538 C42.3417327,67.8495538 40.709969,67.3593994 39.1892679,66.3932568 C38.1727972,65.7370023 37.3012953,64.9456368 36.5757406,64.0384615 C32.0570651,66.6228397 29,71.464177 29,77.0109081 C29,77.8127214 29.6521359,78.4615385 30.4580506,78.4615385 L38.8082025,78.4615385 C40.4094419,74.3084183 42.9734004,70.5591267 46.28,67.5465718 Z" id="Shape" fill="#FFFFFF" opacity="0.5"></path>
                <path d="M74.1753574,65 C71.8247819,67.286024 68.8882858,68.8425727 65.6058049,69.0135669 C65.3979489,69.0318719 65.2183727,69.0346881 65.0006187,69.0346881 C64.8776019,69.0346881 64.761655,69.0290556 64.6457081,69.0220152 C62.3805021,68.9417544 60.2524526,68.2503852 58.237522,66.9619887 C57.3622645,66.4021874 56.5472781,65.7395078 55.7845209,65.0023761 C46.3163802,68.6942838 39.56,77.8752543 39.56,88.5581222 C39.56,89.3655703 40.2115826,90 41.007922,90 L88.9630913,90 C88.9630913,90 88.9775847,90 88.992078,90 C89.7884174,90 90.44,89.3655703 90.44,88.5581222 C90.44,88.4571802 90.4255066,88.3562382 90.4110133,88.269729 C90.2767731,77.7217733 83.5553892,68.661194 74.1753574,65 Z" id="Shape" fill="#FFFFFF"></path>
            </g>
        </g>
    </g>
</svg>