<svg width="238" height="207" viewBox="0 0 238 207" fill="none" xmlns="http://www.w3.org/2000/svg">
<g opacity="0.5" filter="url(#filter0_f)">
<path d="M119.231 138.923C147.27 138.923 170 125.698 170 109.385C170 93.071 147.27 79.8462 119.231 79.8462C91.1916 79.8462 68.4614 93.071 68.4614 109.385C68.4614 125.698 91.1916 138.923 119.231 138.923Z" fill="#48597D"/>
</g>
<path d="M122 126C155.137 126 182 99.1371 182 66C182 32.8629 155.137 6 122 6C88.8629 6 62 32.8629 62 66C62 99.1371 88.8629 126 122 126Z" fill="#56CCF2" stroke="#7CDFFF" stroke-width="11"/>
<path d="M114.204 62.6928C115.075 63.7778 116.08 64.6909 117.205 65.4055C118.665 66.3318 120.178 66.8214 121.705 66.8743C121.812 66.8743 121.906 66.8876 122.013 66.8876C122.147 66.8876 122.254 66.8876 122.388 66.8743C128.416 66.5964 133.077 59.6757 133.077 53.8665C133.077 47.8324 128.121 42.9231 122.013 42.9231C115.892 42.9231 110.923 47.8324 110.923 53.8665C110.923 56.8042 112.102 60.033 114.057 62.5208C114.111 62.5869 114.151 62.6398 114.204 62.6928Z" fill="white"/>
<path opacity="0.5" d="M136.767 64.2135C137.288 64.9229 137.888 65.4959 138.567 65.9461C139.493 66.5737 140.484 66.8874 141.502 66.8874C145.232 66.8874 148.141 62.5219 148.141 58.7565C148.141 54.9229 145.154 51.7987 141.502 51.7987C137.836 51.7987 134.849 54.9229 134.849 58.7565C134.849 60.571 135.54 62.5901 136.701 64.1317C136.714 64.1589 136.741 64.1862 136.767 64.2135Z" fill="white"/>
<path opacity="0.5" d="M97.7778 64.2272C98.2871 64.9229 98.9008 65.4959 99.5667 65.9461C100.507 66.5737 101.499 66.8874 102.505 66.8874C106.252 66.8874 109.151 62.5219 109.151 58.7565C109.151 54.9229 106.174 51.7987 102.505 51.7987C98.8355 51.7987 95.8584 54.9229 95.8584 58.7565C95.8584 60.571 96.5505 62.5901 97.6995 64.1317C97.7256 64.1589 97.7517 64.1999 97.7778 64.2272Z" fill="white"/>
<path opacity="0.5" d="M148.204 65.1125C146.491 67.1896 144.074 68.6345 141.299 68.6345C140.609 68.6345 139.937 68.5326 139.28 68.3631C142.35 71.1342 144.7 74.5831 146.165 78.4261H153.88C154.626 78.4261 155.231 77.8275 155.231 77.0876C155.231 71.9659 152.395 67.4958 148.204 65.1125Z" fill="white"/>
<path opacity="0.5" d="M104.72 68.3508C104.058 68.5302 103.368 68.6305 102.653 68.6305C101.084 68.6305 99.5782 68.178 98.1745 67.2862C97.2362 66.6804 96.4318 65.9499 95.762 65.1125C91.5909 67.4981 88.769 71.967 88.769 77.0871C88.769 77.8272 89.371 78.4261 90.1149 78.4261H97.8228C99.3008 74.5925 101.668 71.1316 104.72 68.3508Z" fill="white"/>
<path d="M130.47 66C128.3 68.1102 125.589 69.547 122.559 69.7048C122.368 69.7217 122.202 69.7243 122.001 69.7243C121.887 69.7243 121.78 69.7191 121.673 69.7126C119.582 69.6385 117.618 69.0004 115.758 67.8111C114.95 67.2943 114.198 66.6826 113.494 66.0022C104.754 69.4101 98.5171 77.8849 98.5171 87.746C98.5171 88.4913 99.1186 89.0769 99.8536 89.0769H144.12C144.12 89.0769 144.133 89.0769 144.147 89.0769C144.882 89.0769 145.483 88.4913 145.483 87.746C145.483 87.6528 145.47 87.5596 145.456 87.4797C145.333 77.7432 139.128 69.3796 130.47 66Z" fill="white"/>
<defs>
<filter id="filter0_f" x="0.618149" y="12.0029" width="237.225" height="194.763" filterUnits="userSpaceOnUse" color-interpolation-filters="sRGB">
<feFlood flood-opacity="0" result="BackgroundImageFix"/>
<feBlend mode="normal" in="SourceGraphic" in2="BackgroundImageFix" result="shape"/>
<feGaussianBlur stdDeviation="33.9216" result="effect1_foregroundBlur"/>
</filter>
</defs>
</svg>
