<svg width="132" height="132" viewBox="0 0 132 132" fill="none" xmlns="http://www.w3.org/2000/svg">
<path d="M66 126C99.1371 126 126 99.1371 126 66C126 32.8629 99.1371 6 66 6C32.8629 6 6 32.8629 6 66C6 99.1371 32.8629 126 66 126Z" fill="#FC6FAB" stroke="#FF9FC8" stroke-width="11"/>
<path opacity="0.5" fill-rule="evenodd" clip-rule="evenodd" d="M90.4166 50.4726C88.5188 50.7877 87.2319 52.583 87.5374 54.489L89.6764 67.2371C89.8551 68.3595 89.5469 69.5051 88.8296 70.3847L83.8804 76.4597C83.5352 76.9012 82.9233 77.0288 82.4315 76.7619C82.1493 76.5976 81.9528 76.3177 81.8937 75.9957C81.8346 75.6736 81.9188 75.3418 82.1241 75.0874L86.4271 69.7993C87.5717 68.4431 87.5122 66.4387 86.2891 65.1533C85.6153 64.4818 84.6903 64.1269 83.742 64.176C82.7936 64.2252 81.91 64.6738 81.3087 65.4114L72.3513 76.4157C69.5618 79.8401 68.2338 84.2322 68.6567 88.6349L69.0017 94.6155H85.3984L85.0534 88.9497L95.51 76.0883C97.0297 74.2212 97.6701 71.7855 97.2663 69.409L94.4311 53.3433C94.1081 51.4406 92.3139 50.1576 90.4166 50.4726Z" fill="white"/>
<path opacity="0.5" fill-rule="evenodd" clip-rule="evenodd" d="M47.8728 88.9509L47.5278 94.6155H63.9216L64.2665 88.6362C64.6893 84.2343 63.3616 79.8431 60.5726 76.4194L51.6169 65.4425C51.0156 64.7051 50.1322 64.2565 49.184 64.2074C48.2358 64.1583 47.311 64.5131 46.6373 65.1845C45.4144 66.4696 45.3549 68.4736 46.4993 69.8295L50.8016 75.1165C51.0001 75.37 51.0801 75.697 51.0213 76.014C50.9625 76.331 50.7704 76.6071 50.4943 76.7719C50.0025 77.0387 49.3907 76.9111 49.0455 76.4697L44.0973 70.396C43.3801 69.5165 43.072 68.3712 43.2506 67.2489L45.3892 54.5035C45.7027 52.5916 44.4125 50.7867 42.5075 50.4721C40.6024 50.1575 38.804 51.4524 38.4906 53.3642L35.6558 69.4204C35.2538 71.7974 35.8964 74.2327 37.4181 76.0984L47.8728 88.9509Z" fill="white"/>
<path d="M78.4615 42.4617V55.8463" stroke="white" stroke-linecap="square"/>
<path d="M54.4615 42.4617V55.8463" stroke="white" stroke-linecap="square"/>
<path d="M66.4615 36.9232L54.4615 42.0002" stroke="white" stroke-linecap="square"/>
<path d="M78.4615 42.4617L66.4615 37.3848" stroke="white" stroke-linecap="square"/>
<path d="M78.4615 58.154L66.4615 53.0771" stroke="white" stroke-linecap="square"/>
<path d="M66.4615 52.6155L54.4615 57.6925" stroke="white" stroke-linecap="square"/>
<path d="M54.4618 41.5386L66.4618 46.6155" stroke="white" stroke-linecap="square"/>
<path d="M54.4618 57.2309L66.4618 62.3078" stroke="white" stroke-linecap="square"/>
<path d="M78.4615 41.5386L66.4615 46.6155" stroke="white" stroke-linecap="square"/>
<path d="M78.4615 57.2309L66.4615 62.3078" stroke="white" stroke-linecap="square"/>
<path d="M66.4615 37.8463V61.3848" stroke="white" stroke-linecap="square"/>
<path fill-rule="evenodd" clip-rule="evenodd" d="M66.4615 39.2309C67.736 39.2309 68.7692 38.1977 68.7692 36.9232C68.7692 35.6487 67.736 34.6155 66.4615 34.6155C65.187 34.6155 64.1538 35.6487 64.1538 36.9232C64.1538 38.1977 65.187 39.2309 66.4615 39.2309Z" fill="white"/>
<path fill-rule="evenodd" clip-rule="evenodd" d="M78.4615 43.8463C79.736 43.8463 80.7692 42.8131 80.7692 41.5386C80.7692 40.2641 79.736 39.2309 78.4615 39.2309C77.187 39.2309 76.1538 40.2641 76.1538 41.5386C76.1538 42.8131 77.187 43.8463 78.4615 43.8463Z" fill="white"/>
<path fill-rule="evenodd" clip-rule="evenodd" d="M78.4615 59.5386C79.736 59.5386 80.7692 58.5054 80.7692 57.2309C80.7692 55.9564 79.736 54.9232 78.4615 54.9232C77.187 54.9232 76.1538 55.9564 76.1538 57.2309C76.1538 58.5054 77.187 59.5386 78.4615 59.5386Z" fill="white"/>
<path fill-rule="evenodd" clip-rule="evenodd" d="M66.4615 65.0771C67.736 65.0771 68.7692 64.0439 68.7692 62.7694C68.7692 61.4949 67.736 60.4617 66.4615 60.4617C65.187 60.4617 64.1538 61.4949 64.1538 62.7694C64.1538 64.0439 65.187 65.0771 66.4615 65.0771Z" fill="white"/>
<path fill-rule="evenodd" clip-rule="evenodd" d="M66.4615 49.3848C67.736 49.3848 68.7692 48.3516 68.7692 47.0771C68.7692 45.8026 67.736 44.7694 66.4615 44.7694C65.187 44.7694 64.1538 45.8026 64.1538 47.0771C64.1538 48.3516 65.187 49.3848 66.4615 49.3848Z" fill="white"/>
<path fill-rule="evenodd" clip-rule="evenodd" d="M54.4615 44.7694C55.736 44.7694 56.7692 43.7362 56.7692 42.4617C56.7692 41.1872 55.736 40.154 54.4615 40.154C53.187 40.154 52.1538 41.1872 52.1538 42.4617C52.1538 43.7362 53.187 44.7694 54.4615 44.7694Z" fill="white"/>
<path fill-rule="evenodd" clip-rule="evenodd" d="M54.4615 60.4617C55.736 60.4617 56.7692 59.4285 56.7692 58.154C56.7692 56.8795 55.736 55.8463 54.4615 55.8463C53.187 55.8463 52.1538 56.8795 52.1538 58.154C52.1538 59.4285 53.187 60.4617 54.4615 60.4617Z" fill="white"/>
</svg>
