<svg width="238" height="207" viewBox="0 0 238 207" fill="none" xmlns="http://www.w3.org/2000/svg">
<g opacity="0.5" filter="url(#filter0_f)">
<path d="M119.154 138.923C147.193 138.923 169.923 125.698 169.923 109.385C169.923 93.071 147.193 79.8462 119.154 79.8462C91.1149 79.8462 68.3848 93.071 68.3848 109.385C68.3848 125.698 91.1149 138.923 119.154 138.923Z" fill="#48597D"/>
</g>
<path d="M121 126C154.137 126 181 99.1371 181 66C181 32.8629 154.137 6 121 6C87.8629 6 61 32.8629 61 66C61 99.1371 87.8629 126 121 126Z" fill="#FC6FAB" stroke="#FF9FC8" stroke-width="11"/>
<path opacity="0.5" fill-rule="evenodd" clip-rule="evenodd" d="M145.417 50.4726C143.519 50.7877 142.232 52.583 142.537 54.489L144.676 67.2371C144.855 68.3595 144.547 69.5051 143.83 70.3847L138.88 76.4597C138.535 76.9012 137.923 77.0288 137.431 76.7619C137.149 76.5976 136.953 76.3177 136.894 75.9957C136.835 75.6736 136.919 75.3418 137.124 75.0874L141.427 69.7993C142.572 68.4431 142.512 66.4387 141.289 65.1533C140.615 64.4818 139.69 64.1269 138.742 64.176C137.794 64.2252 136.91 64.6738 136.309 65.4114L127.351 76.4157C124.562 79.8401 123.234 84.2322 123.657 88.6349L124.002 94.6155H140.398L140.053 88.9497L150.51 76.0883C152.03 74.2212 152.67 71.7855 152.266 69.409L149.431 53.3433C149.108 51.4406 147.314 50.1576 145.417 50.4726Z" fill="white"/>
<path opacity="0.5" fill-rule="evenodd" clip-rule="evenodd" d="M102.873 88.9509L102.528 94.6155H118.922L119.267 88.6362C119.689 84.2343 118.362 79.8431 115.573 76.4194L106.617 65.4425C106.016 64.7051 105.132 64.2565 104.184 64.2074C103.236 64.1583 102.311 64.5131 101.637 65.1845C100.414 66.4696 100.355 68.4736 101.499 69.8295L105.802 75.1165C106 75.37 106.08 75.697 106.021 76.014C105.962 76.331 105.77 76.6071 105.494 76.7719C105.002 77.0387 104.391 76.9111 104.046 76.4697L99.0973 70.396C98.3801 69.5165 98.072 68.3712 98.2506 67.2489L100.389 54.5035C100.703 52.5916 99.4125 50.7867 97.5075 50.4721C95.6024 50.1575 93.804 51.4524 93.4906 53.3642L90.6558 69.4204C90.2538 71.7974 90.8964 74.2327 92.4181 76.0984L102.873 88.9509Z" fill="white"/>
<path d="M133.462 42.4617V55.8463" stroke="white" stroke-linecap="square"/>
<path d="M109.462 42.4617V55.8463" stroke="white" stroke-linecap="square"/>
<path d="M121.462 36.9232L109.462 42.0002" stroke="white" stroke-linecap="square"/>
<path d="M133.462 42.4617L121.462 37.3848" stroke="white" stroke-linecap="square"/>
<path d="M133.462 58.154L121.462 53.0771" stroke="white" stroke-linecap="square"/>
<path d="M121.462 52.6155L109.462 57.6925" stroke="white" stroke-linecap="square"/>
<path d="M109.462 41.5386L121.462 46.6155" stroke="white" stroke-linecap="square"/>
<path d="M109.462 57.2309L121.462 62.3078" stroke="white" stroke-linecap="square"/>
<path d="M133.462 41.5386L121.462 46.6155" stroke="white" stroke-linecap="square"/>
<path d="M133.462 57.2309L121.462 62.3078" stroke="white" stroke-linecap="square"/>
<path d="M121.462 37.8463V61.3848" stroke="white" stroke-linecap="square"/>
<path fill-rule="evenodd" clip-rule="evenodd" d="M121.462 39.2309C122.736 39.2309 123.769 38.1977 123.769 36.9232C123.769 35.6487 122.736 34.6155 121.462 34.6155C120.187 34.6155 119.154 35.6487 119.154 36.9232C119.154 38.1977 120.187 39.2309 121.462 39.2309Z" fill="white"/>
<path fill-rule="evenodd" clip-rule="evenodd" d="M133.462 43.8463C134.736 43.8463 135.769 42.8131 135.769 41.5386C135.769 40.2641 134.736 39.2309 133.462 39.2309C132.187 39.2309 131.154 40.2641 131.154 41.5386C131.154 42.8131 132.187 43.8463 133.462 43.8463Z" fill="white"/>
<path fill-rule="evenodd" clip-rule="evenodd" d="M133.462 59.5386C134.736 59.5386 135.769 58.5054 135.769 57.2309C135.769 55.9564 134.736 54.9232 133.462 54.9232C132.187 54.9232 131.154 55.9564 131.154 57.2309C131.154 58.5054 132.187 59.5386 133.462 59.5386Z" fill="white"/>
<path fill-rule="evenodd" clip-rule="evenodd" d="M121.462 65.0771C122.736 65.0771 123.769 64.0439 123.769 62.7694C123.769 61.4949 122.736 60.4617 121.462 60.4617C120.187 60.4617 119.154 61.4949 119.154 62.7694C119.154 64.0439 120.187 65.0771 121.462 65.0771Z" fill="white"/>
<path fill-rule="evenodd" clip-rule="evenodd" d="M121.462 49.3848C122.736 49.3848 123.769 48.3516 123.769 47.0771C123.769 45.8026 122.736 44.7694 121.462 44.7694C120.187 44.7694 119.154 45.8026 119.154 47.0771C119.154 48.3516 120.187 49.3848 121.462 49.3848Z" fill="white"/>
<path fill-rule="evenodd" clip-rule="evenodd" d="M109.462 44.7694C110.736 44.7694 111.769 43.7362 111.769 42.4617C111.769 41.1872 110.736 40.154 109.462 40.154C108.187 40.154 107.154 41.1872 107.154 42.4617C107.154 43.7362 108.187 44.7694 109.462 44.7694Z" fill="white"/>
<path fill-rule="evenodd" clip-rule="evenodd" d="M109.462 60.4617C110.736 60.4617 111.769 59.4285 111.769 58.154C111.769 56.8795 110.736 55.8463 109.462 55.8463C108.187 55.8463 107.154 56.8795 107.154 58.154C107.154 59.4285 108.187 60.4617 109.462 60.4617Z" fill="white"/>
<defs>
<filter id="filter0_f" x="0.541489" y="12.0029" width="237.225" height="194.763" filterUnits="userSpaceOnUse" color-interpolation-filters="sRGB">
<feFlood flood-opacity="0" result="BackgroundImageFix"/>
<feBlend mode="normal" in="SourceGraphic" in2="BackgroundImageFix" result="shape"/>
<feGaussianBlur stdDeviation="33.9216" result="effect1_foregroundBlur"/>
</filter>
</defs>
</svg>
