<svg width="238" height="207" viewBox="0 0 238 207" fill="none" xmlns="http://www.w3.org/2000/svg">
<g opacity="0.5" filter="url(#filter0_f)">
<path d="M119.384 138.923C147.424 138.923 170.154 125.698 170.154 109.385C170.154 93.071 147.424 79.8462 119.384 79.8462C91.3454 79.8462 68.6152 93.071 68.6152 109.385C68.6152 125.698 91.3454 138.923 119.384 138.923Z" fill="#48597D"/>
</g>
<path d="M124 126C157.137 126 184 99.1371 184 66C184 32.8629 157.137 6 124 6C90.8629 6 64 32.8629 64 66C64 99.1371 90.8629 126 124 126Z" fill="#AF88E7" stroke="#C5A8F0" stroke-width="11"/>
<path fill-rule="evenodd" clip-rule="evenodd" d="M143.063 57.5963H106.461V71.9542C106.461 82.5057 121.721 92.7692 124.762 92.7692C127.804 92.7692 143.063 82.5039 143.063 71.9542V57.5963ZM121.266 71.7403C122.147 72.6214 123.027 73.5024 123.908 74.3832L131.864 66.4229C133.763 64.5233 136.634 67.3955 134.735 69.2952L125.343 78.692C124.553 79.482 123.263 79.482 122.472 78.6911C121.352 77.5701 120.232 76.4494 119.111 75.3286C117.992 74.209 116.873 73.0894 115.754 71.9696C113.855 70.07 116.726 67.1977 118.624 69.0974C119.505 69.9782 120.386 70.8593 121.266 71.7403Z" fill="white"/>
<path opacity="0.6" d="M106.461 50.8539C118.229 47.6641 131.295 47.6641 143.063 50.8539C143.063 52.1776 143.063 55.7882 143.063 55.7882L106.461 55.7576C106.461 55.7576 106.461 52.1674 106.461 50.8539Z" fill="white"/>
<defs>
<filter id="filter0_f" x="0.771957" y="12.0029" width="237.225" height="194.763" filterUnits="userSpaceOnUse" color-interpolation-filters="sRGB">
<feFlood flood-opacity="0" result="BackgroundImageFix"/>
<feBlend mode="normal" in="SourceGraphic" in2="BackgroundImageFix" result="shape"/>
<feGaussianBlur stdDeviation="33.9216" result="effect1_foregroundBlur"/>
</filter>
</defs>
</svg>
