<?xml version="1.0" encoding="UTF-8"?>
<svg width="142px" height="142px" viewBox="0 0 142 142" version="1.1" xmlns="http://www.w3.org/2000/svg" xmlns:xlink="http://www.w3.org/1999/xlink">
    <!-- Generator: Sketch 53.2 (72643) - https://sketchapp.com -->
    <title>unlimited</title>
    <desc>Created with Sketch.</desc>
    <g id="Page-1" stroke="none" stroke-width="1" fill="none" fill-rule="evenodd">
        <g id="how_zom_works" transform="translate(-994.000000, -6778.000000)" fill-rule="nonzero">
            <g id="unlimited" transform="translate(1000.000000, 6784.000000)">
                <circle id="Oval" stroke="#C5A8F0" stroke-width="11" fill="#AF88E7" cx="65" cy="65" r="65"></circle>
                <path d="M46,55.8960493 L85.6521739,55.8960493 C85.6521739,61.1859131 85.6521739,66.3707022 85.6521739,71.4504168 C85.6521739,82.8792899 69.1212374,94 65.8256079,94 C62.5309173,94 46,82.881228 46,71.4504168 C46,66.3706958 46,61.1859066 46,55.8960493 Z M64.9004065,74.0815861 C62.9920216,72.1731472 61.0846011,70.2637435 59.1762067,68.355295 C57.1193131,66.2973033 54.009387,69.4088899 56.0662805,71.4668816 C58.4925074,73.8944039 60.9187343,76.3209613 63.3449612,78.7484836 C64.2012767,79.6052563 65.5995352,79.6052563 66.4548873,78.7494484 C69.8473657,75.3551588 73.2379058,71.9628084 76.6293717,68.5695318 C78.6862652,66.5115401 75.576339,63.3999535 73.5194455,65.4579452 C70.6467765,68.332148 67.7731045,71.2073543 64.9004065,74.0815861 Z" id="Shape" fill="#FFFFFF"></path>
                <path d="M46,48.5917015 C58.7486127,45.1360995 72.9035612,45.1360995 85.6521739,48.5917015 C85.6521739,49.5476976 85.6521739,51.3295172 85.6521739,53.9371603 L46,53.9040421 C46,51.311118 46,49.5403377 46,48.5917015 Z" id="Path" fill="#FFFFFF" opacity="0.6"></path>
            </g>
        </g>
    </g>
</svg>