<svg width="132" height="132" viewBox="0 0 132 132" fill="none" xmlns="http://www.w3.org/2000/svg">
<path d="M66 126C99.1371 126 126 99.1371 126 66C126 32.8629 99.1371 6 66 6C32.8629 6 6 32.8629 6 66C6 99.1371 32.8629 126 66 126Z" fill="#21CC65" stroke="#5EE594" stroke-width="11"/>
<path opacity="0.6" d="M93 55.7539V52.9062C93 49.6443 90.3557 47 87.0938 47H44.9062C41.6443 47 39 49.6443 39 52.9062V55.7539C39 56.0451 39.2361 56.2812 39.5273 56.2812H92.4727C92.7639 56.2812 93 56.0451 93 55.7539Z" fill="white"/>
<path d="M39 60.1836V78.2188C39 81.4807 41.6443 84.125 44.9062 84.125H87.0938C90.3557 84.125 93 81.4807 93 78.2188V60.1836C93 59.8924 92.7639 59.6562 92.4727 59.6562H39.5273C39.2361 59.6562 39 59.8924 39 60.1836ZM52.5 74C52.5 74.9319 51.7444 75.6875 50.8125 75.6875H49.125C48.1931 75.6875 47.4375 74.9319 47.4375 74V72.3125C47.4375 71.3806 48.1931 70.625 49.125 70.625H50.8125C51.7444 70.625 52.5 71.3806 52.5 72.3125V74Z" fill="white"/>
</svg>
