<svg width="238" height="207" viewBox="0 0 238 207" fill="none" xmlns="http://www.w3.org/2000/svg">
<g opacity="0.5" filter="url(#filter0_f)">
<path d="M119 138.923C147.039 138.923 169.769 125.698 169.769 109.385C169.769 93.071 147.039 79.8462 119 79.8462C90.9611 79.8462 68.231 93.071 68.231 109.385C68.231 125.698 90.9611 138.923 119 138.923Z" fill="#48597D"/>
</g>
<path d="M119 126C152.137 126 179 99.1371 179 66C179 32.8629 152.137 6 119 6C85.8629 6 59 32.8629 59 66C59 99.1371 85.8629 126 119 126Z" fill="#21CC65" stroke="#5EE594" stroke-width="11"/>
<path opacity="0.6" d="M146 55.7539V52.9062C146 49.6443 143.356 47 140.094 47H97.9062C94.6443 47 92 49.6443 92 52.9062V55.7539C92 56.0451 92.2361 56.2812 92.5273 56.2812H145.473C145.764 56.2812 146 56.0451 146 55.7539Z" fill="white"/>
<path d="M92 60.1836V78.2188C92 81.4807 94.6443 84.125 97.9062 84.125H140.094C143.356 84.125 146 81.4807 146 78.2188V60.1836C146 59.8924 145.764 59.6562 145.473 59.6562H92.5273C92.2361 59.6562 92 59.8924 92 60.1836ZM105.5 74C105.5 74.9319 104.744 75.6875 103.812 75.6875H102.125C101.193 75.6875 100.438 74.9319 100.438 74V72.3125C100.438 71.3806 101.193 70.625 102.125 70.625H103.812C104.744 70.625 105.5 71.3806 105.5 72.3125V74Z" fill="white"/>
<defs>
<filter id="filter0_f" x="0.38768" y="12.0029" width="237.225" height="194.763" filterUnits="userSpaceOnUse" color-interpolation-filters="sRGB">
<feFlood flood-opacity="0" result="BackgroundImageFix"/>
<feBlend mode="normal" in="SourceGraphic" in2="BackgroundImageFix" result="shape"/>
<feGaussianBlur stdDeviation="33.9216" result="effect1_foregroundBlur"/>
</filter>
</defs>
</svg>
