<?xml version="1.0" encoding="UTF-8"?>
<svg width="50px" height="50px" viewBox="0 0 50 50" version="1.1" xmlns="http://www.w3.org/2000/svg" xmlns:xlink="http://www.w3.org/1999/xlink">
    <!-- Generator: Sketch 51.2 (57519) - http://www.bohemiancoding.com/sketch -->
    <title>Group 25</title>
    <desc>Created with Sketch.</desc>
    <defs>
        <circle id="path-1" cx="21" cy="21" r="21"></circle>
        <filter x="-13.1%" y="-10.7%" width="135.7%" height="135.7%" filterUnits="objectBoundingBox" id="filter-2">
            <feOffset dx="2" dy="3" in="SourceAlpha" result="shadowOffsetOuter1"></feOffset>
            <feGaussianBlur stdDeviation="2" in="shadowOffsetOuter1" result="shadowBlurOuter1"></feGaussianBlur>
            <feColorMatrix values="0 0 0 0 0   0 0 0 0 0   0 0 0 0 0  0 0 0 0.11 0" type="matrix" in="shadowBlurOuter1"></feColorMatrix>
        </filter>
        <polygon id="path-3" points="0 0 23.76 0 23.76 22 0 22"></polygon>
    </defs>
    <g id="Page-1" stroke="none" stroke-width="1" fill="none" fill-rule="evenodd">
        <g id="Home_v2" transform="translate(-1394.000000, -5013.000000)">
            <g id="Group-25" transform="translate(1396.000000, 5014.000000)">
                <g id="Oval-10">
                    <use fill="black" fill-opacity="1" filter="url(#filter-2)" xlink:href="#path-1"></use>
                    <use fill="#FFFFFF" fill-rule="evenodd" xlink:href="#path-1"></use>
                </g>
                <g id="Group-2" transform="translate(9.000000, 10.000000)">
                    <mask id="mask-4" fill="white">
                        <use xlink:href="#path-3"></use>
                    </mask>
                    <g id="Clip-2"></g>
                    <path d="M22.4546558,11.437606 C21.7627868,10.4858368 20.7851163,9.65576106 19.5431325,8.96558291 C19.8907657,8.68237961 20.3249462,8.52851718 20.7873246,8.52851718 C21.8645372,8.52851718 22.740797,9.38619009 22.740797,10.440368 C22.740797,10.7986322 22.6425288,11.1391911 22.4546558,11.437606 M15.8577794,15.2003778 C14.68697,15.2003778 13.7344399,14.2681427 13.7344399,13.1222791 C13.7344399,11.9763323 14.68697,11.0440973 15.8577794,11.0440973 C17.0285889,11.0440973 17.981119,11.9763323 17.981119,13.1222791 C17.981119,14.2681427 17.0285889,15.2003778 15.8577794,15.2003778 M16.2358188,17.8647498 C15.408141,18.7489392 13.7391112,19.2981392 11.88,19.2981392 C10.0209737,19.2981392 8.35194389,18.7489392 7.52426613,17.8647498 C7.37096101,17.7010787 7.29214264,17.4886139 7.30199494,17.2669223 C7.31184723,17.0450645 7.40952085,16.8402471 7.57675508,16.6902915 C7.73379727,16.5494795 7.93746801,16.4719249 8.1503965,16.4719249 C8.38795573,16.4719249 8.61617227,16.5702605 8.77661181,16.7416621 C9.26948139,17.2680861 10.5455235,17.6356602 11.88,17.6356602 C13.2144765,17.6356602 14.4906035,17.2680861 14.9833882,16.7416621 C15.1438277,16.5701774 15.3720443,16.4719249 15.6096884,16.4719249 C15.8227019,16.4719249 16.0263726,16.5494795 16.1834148,16.6902915 C16.3507339,16.8402471 16.4482377,17.0450645 16.45809,17.2669223 C16.4680272,17.4886139 16.3891239,17.7010787 16.2358188,17.8647498 M5.77888099,13.1222791 C5.77888099,11.9763323 6.73141113,11.0440973 7.90222057,11.0440973 C9.07303001,11.0440973 10.0255601,11.9763323 10.0255601,13.1222791 C10.0255601,14.2681427 9.07303001,15.2003778 7.90222057,15.2003778 C6.73141113,15.2003778 5.77888099,14.2681427 5.77888099,13.1222791 M1.30534424,11.437606 C1.11747115,11.1391911 1.019203,10.7986322 1.019203,10.440368 C1.019203,9.38619009 1.89546277,8.52851718 2.97267541,8.52851718 C3.43505383,8.52851718 3.86940418,8.68237961 4.21686747,8.96558291 C2.97496861,9.65567793 1.99738307,10.4858368 1.30534424,11.437606 M23.76,10.440368 C23.76,8.83615892 22.4264578,7.53102979 20.7873246,7.53102979 C19.8728447,7.53102979 19.0314077,7.93102224 18.4704214,8.61696106 C16.8964322,7.91614305 15.1017007,7.48431413 13.2032652,7.34757524 L14.8344996,2.30261652 L18.4777257,3.0751705 C18.7567325,4.13766082 19.743321,4.92534336 20.914725,4.92534336 C22.3022,4.92534336 23.4310522,3.82062607 23.4310522,2.46271324 C23.4310522,1.10480041 22.3022,0 20.914725,0 C19.9124238,0 19.0462711,0.576963331 18.6419872,1.40903406 L14.4380297,0.517446583 C14.0098795,0.426675231 13.580795,0.669812782 13.4484685,1.07903198 L11.4351179,7.30568077 C9.21291562,7.35863072 7.10452436,7.80874691 5.28966355,8.61687794 C4.7285923,7.93102224 3.88724023,7.53102979 2.97267541,7.53102979 C1.33354219,7.53102979 0,8.83615892 0,10.440368 C0,11.2194888 0.312810386,11.9510627 0.868191086,12.4942777 C0.536950112,13.1900251 0.369206286,13.9137022 0.369206286,14.6501804 C0.369206286,16.6491451 1.59191015,18.5148622 3.81224388,19.903614 C5.97354877,21.2554588 8.83886812,22 11.88,22 C14.9213017,22 17.7864512,21.2554588 19.9477561,19.903614 C22.1680899,18.5148622 23.3907937,16.6491451 23.3907937,14.6501804 C23.3907937,13.9137854 23.2230499,13.1901083 22.8918089,12.4942777 C23.4472745,11.9509795 23.76,11.2194888 23.76,10.440368" id="Fill-1" fill="#5055B9" mask="url(#mask-4)"></path>
                </g>
            </g>
        </g>
    </g>
</svg>