<?xml version="1.0" encoding="UTF-8"?>
<svg width="50px" height="50px" viewBox="0 0 50 50" version="1.1" xmlns="http://www.w3.org/2000/svg" xmlns:xlink="http://www.w3.org/1999/xlink">
    <!-- Generator: Sketch 51.2 (57519) - http://www.bohemiancoding.com/sketch -->
    <title>Group 24</title>
    <desc>Created with Sketch.</desc>
    <defs>
        <circle id="path-1" cx="21" cy="21" r="21"></circle>
        <filter x="-13.1%" y="-10.7%" width="135.7%" height="135.7%" filterUnits="objectBoundingBox" id="filter-2">
            <feOffset dx="2" dy="3" in="SourceAlpha" result="shadowOffsetOuter1"></feOffset>
            <feGaussianBlur stdDeviation="2" in="shadowOffsetOuter1" result="shadowBlurOuter1"></feGaussianBlur>
            <feColorMatrix values="0 0 0 0 0   0 0 0 0 0   0 0 0 0 0  0 0 0 0.11 0" type="matrix" in="shadowBlurOuter1"></feColorMatrix>
        </filter>
    </defs>
    <g id="Page-1" stroke="none" stroke-width="1" fill="none" fill-rule="evenodd">
        <g id="Home_v2" transform="translate(-1342.000000, -5013.000000)">
            <g id="Group-24" transform="translate(1344.000000, 5014.000000)">
                <g id="Oval-10">
                    <use fill="black" fill-opacity="1" filter="url(#filter-2)" xlink:href="#path-1"></use>
                    <use fill="#FFFFFF" fill-rule="evenodd" xlink:href="#path-1"></use>
                </g>
                <path d="M32.393229,13.3327566 C31.5203717,13.8529412 30.5552945,14.2318339 29.5250174,14.4342561 C28.7038501,13.5513264 27.5302504,13 26.23095,13 C23.7404283,13 21.7192289,15.0346021 21.7192289,17.544406 C21.7192289,17.9002307 21.7579965,18.2462514 21.8349442,18.5790081 C18.084477,18.3892734 14.759278,16.5818916 12.5319058,13.8292964 C12.1424681,14.5028835 11.9204357,15.2843137 11.9204357,16.1164937 C11.9204357,17.6926182 12.7175202,19.0836217 13.9287126,19.8985006 C13.1903669,19.8765859 12.4925509,19.6695502 11.8834303,19.3316032 L11.8834303,19.3875433 C11.8834303,21.5893887 13.439419,23.4267589 15.5052598,23.8431373 C15.1269824,23.9492503 14.7281465,24.0028835 14.3163881,24.0028835 C14.0256314,24.0028835 13.741336,23.9752018 13.4664388,23.9221453 C14.0414909,25.7266436 15.707321,27.0415225 17.6827041,27.0761246 C16.1378758,28.295271 14.1912746,29.0224913 12.0772681,29.0224913 C11.7130881,29.0224913 11.3530197,29.0017301 11,28.9602076 C12.9977039,30.2468281 15.3713355,31 17.9188338,31 C26.2221392,31 30.76088,24.0767013 30.76088,18.0720877 C30.76088,17.8742791 30.7573557,17.6764706 30.7491323,17.482699 C31.6313878,16.8419839 32.3967534,16.0420992 33,15.1309112 C32.1917552,15.4925029 31.3212474,15.7370242 30.4084477,15.8460208 C31.3406312,15.2843137 32.0560688,14.393887 32.393229,13.3327566" id="Fill-28" fill="#6B9AEC"></path>
            </g>
        </g>
    </g>
</svg>