<?xml version="1.0" encoding="utf-8"?>
<!-- Generator: Adobe Illustrator 22.1.0, SVG Export Plug-In . SVG Version: 6.00 Build 0)  -->
<svg version="1.1" id="Layer_1" xmlns="http://www.w3.org/2000/svg" xmlns:xlink="http://www.w3.org/1999/xlink" x="0px" y="0px"
	 viewBox="0 0 240 120" style="enable-background:new 0 0 240 120;" xml:space="preserve">
<style type="text/css">
	.st0{display:none;fill:#FFFFFF;}
	.st1{fill:#1D97F5;}
	.st2{fill:#004080;}
	.st3{fill:#D60000;}
</style>
<rect class="st0" width="240" height="120"/>
<path class="st1" d="M4.6,48.2c-3.8-4.2,4-9,7.6-4.5l12.6,17.1l12.8-17.1c3.6-4.6,11.1,0,7.5,4.2l-16,20.8v12.9c0.6,5.4-9,5.4-9,0
	V68.7L4.6,48.2z"/>
<path class="st1" d="M41.4,85.5c-2.2-1.1-3.6-3.4-2.2-6l19.6-35c1.8-3.3,6.8-3.4,8.5,0l19.3,35c2.8,4.9-5.4,8.7-7.9,3.8l-3-5.5H50.5
	l-3,5.5C46.4,85.5,43.9,86,41.4,85.5z M70.8,69.7L63,54.2l-8.3,15.4H70.8z"/>
<path class="st1" d="M96.9,85.5c-4.3,0-6-3.8-3.5-6.5l24.3-29.5H97.5c-5.9,0-5.4-7.7,0-7.7h27.6c5.2,0,6.7,4.5,3,8.1l-23.4,27.7H127
	c5.4,0,6.2,7.9-0.6,7.9H96.9z"/>
<path class="st1" d="M157.4,86.2c-12.6,0.5-25.8-7.2-25.8-22.5c0-15.4,13.1-22.9,25.8-22.9c12,0.6,24.5,8.1,24.5,22.9
	S169.4,86.2,157.4,86.2z M156.7,48.9c-7.7,0-16,5-16,14.8s8.3,14.8,16,14.8c7.8,0,16.3-5,16.3-14.8C173,53.8,164.6,48.9,156.7,48.9z
	"/>
<path class="st1" d="M197.9,58.2v23.1c0,2.7-2.5,4.3-5,4.3c-2.2,0-4.1-1.5-4.1-4.3V46.1c0-3.3,3-4.3,4.1-4.3c2,0,3.1,1,4.3,2.2
	l15,18.6l15.6-19.2c2.2-2.6,7.8-1.5,7.8,2.7v35.1c0,2.7-1.9,4.3-4.1,4.3c-2.5,0-4.4-1.5-4.4-4.3v-23l-11.4,13.1
	c-2.5,2.7-5.5,2.7-7.8,0L197.9,58.2z"/>
<path class="st2" d="M73.2,42c-1.9-1-2.7-3.4-1.8-5.3c8.1-15.8,24.2-27,42.9-28.1c2.2-0.2,4,1.5,4.2,3.7c0.2,2.2-1.5,4-3.7,4.2
	c-15.9,0.9-29.5,10.3-36.3,23.8c-0.7,1.4-2.1,2.2-3.5,2.2C74.3,42.5,73.8,42.3,73.2,42z"/>
<path class="st2" d="M117.3,112.2c-12.3,0-23.8-4.4-32.6-11.6c-1.7-1.4-1.9-3.8-0.6-5.5c1.4-1.7,3.8-1.9,5.5-0.6
	c7.5,6.2,17.1,9.8,27.6,9.8c10.6,0,20.4-3.8,27.9-10.2c1.7-1.4,4.2-1.2,5.5,0.5s1.2,4.2-0.5,5.5
	C141.4,107.8,129.8,112.2,117.3,112.2z"/>
<path class="st3" d="M147.6,18.6c0,4.9-3.9,8.8-8.8,8.8c-4.9,0-8.8-3.9-8.8-8.8s3.9-8.8,8.8-8.8C143.7,9.8,147.6,13.7,147.6,18.6z"
	/>
</svg>
