<?xml version="1.0" encoding="utf-8"?>
<!-- Generator: Adobe Illustrator 22.1.0, SVG Export Plug-In . SVG Version: 6.00 Build 0)  -->
<svg version="1.1" id="Layer_1" xmlns="http://www.w3.org/2000/svg" xmlns:xlink="http://www.w3.org/1999/xlink" x="0px" y="0px"
	 viewBox="0 0 500 500" style="enable-background:new 0 0 500 500;" xml:space="preserve">
<style type="text/css">
	.st0{fill:#004080;}
	.st1{fill:#1D97F5;}
	.st2{fill:#FED711;}
	.st3{fill:#D60000;}
	.st4{display:none;}
	.st5{display:inline;}
	.st6{fill:#009FE3;}
	.st7{fill:#006284;}
	.st8{fill:#DF3439;}
</style>
<path class="st0" d="M28.4,326.5c-14.1,0-19.5-12.3-11.6-21.1L96.2,209H30.4c-19.5,0-18-24.9,0-24.9h90c17,0,21.8,14.7,9.8,26.5
	l-76.1,90h72.5c17.7,0,20,26-1.8,26H28.4V326.5z"/>
<path class="st0" d="M236.3,328.6c-41.4,1.5-84.1-23.4-84.1-73.3c0-50.1,42.9-74.8,84.1-74.8c39.1,1.8,79.9,26.5,79.9,74.8
	S275.4,328.6,236.3,328.6z M233.8,207c-24.9,0-52.2,16.2-52.2,48.3c0,31.9,27.2,48.3,52.2,48.3c25.7,0,53.2-16.2,53.2-48.3
	C287,222.9,259.5,207,233.8,207z"/>
<path class="st0" d="M365.6,237.1v75.3c0,9-8,14.1-16.2,14.1c-7.2,0-13.4-5.1-13.4-14.1V197.7c0-10.5,9.8-14.1,13.4-14.1
	c6.4,0,10.3,3.3,14.1,7.5l49.1,60.4l50.9-62.7c7.5-8.5,25.4-5.1,25.4,9v114.6c0,9-6.2,14.1-13.4,14.1c-8,0-14.4-5.1-14.4-14.1v-75.3
	L424.5,280c-8,9-18,9-25.4,0L365.6,237.1z"/>
<g>
	<path class="st1" d="M100.3,144.8c-5.4-4.6-5.9-12.9-1.3-18.3l0,0c37.8-44,97.4-66.8,157.8-55.5l0,0c6.9,1.3,11.6,8,10.3,14.9l0,0
		c-1.3,6.9-8,11.6-14.9,10.3l0,0c-51.2-9.5-101.5,9.8-133.7,47l0,0c-3.3,3.9-8.2,5.1-12.9,4.1l0,0
		C103.9,147.1,101.9,146.1,100.3,144.8L100.3,144.8z"/>
</g>
<g>
	<path class="st1" d="M352.8,370.7c4.6,5.4,4.1,13.6-1.3,18.3l0,0c-44,38-106.2,51.9-164.3,31.9l0,0c-6.7-2.3-10.3-9.5-8-16.5l0,0
		c2.3-6.7,9.5-10.3,16.5-8l0,0c49.1,17,101.8,5.1,139.1-27l0,0c3.9-3.3,9-3.9,13.4-2.1l0,0C349.9,367.9,351.5,369.2,352.8,370.7
		L352.8,370.7z"/>
</g>
<path class="st2" d="M353.3,120.6c0,15.9-12.9,28.8-28.8,28.8s-28.8-12.9-28.8-28.8s12.9-28.8,28.8-28.8S353.3,104.9,353.3,120.6z"
	/>
<path class="st3" d="M153.3,376.9c0,15.9-12.9,28.8-28.8,28.8s-28.8-12.9-28.8-28.8s12.9-28.8,28.8-28.8S153.3,361,153.3,376.9z"/>
<g id="Layer_1_1_" class="st4">
	<g class="st5">
		<path class="st6" d="M110.7,237.3c-4.7-5.3,5-11.3,9.5-5.6l15.8,21.4l16-21.4c4.5-5.7,13.9,0,9.4,5.2l-20,26V279
			c0.8,6.8-11.3,6.8-11.3,0v-16.1L110.7,237.3z"/>
		<path class="st6" d="M156.8,283.9c-2.7-1.4-4.5-4.2-2.7-7.5l24.5-43.8c2.3-4.1,8.5-4.3,10.6,0l24.1,43.8c3.5,6.1-6.8,10.9-9.9,4.8
			l-3.8-6.9h-31.5l-3.7,6.9C163,283.9,159.9,284.5,156.8,283.9z M193.5,264.1l-9.7-19.3l-10.5,19.3H193.5z"/>
		<path class="st6" d="M226.1,283.9c-5.4,0-7.5-4.8-4.4-8.1l30.4-36.9h-25.2c-7.4,0-6.8-9.6,0-9.6h34.5c6.5,0,8.4,5.6,3.8,10.1
			L235.9,274h27.8c6.8,0,7.7,9.9-0.7,9.9H226.1z"/>
		<path class="st6" d="M301.8,284.7c-15.8,0.6-32.2-9-32.2-28.1c0-19.2,16.4-28.6,32.2-28.6c15,0.7,30.6,10.1,30.6,28.6
			S316.8,284.7,301.8,284.7z M300.9,238.1c-9.6,0-20,6.2-20,18.5c0,12.3,10.4,18.5,20,18.5c9.8,0,20.4-6.2,20.4-18.5
			C321.2,244.3,310.7,238.1,300.9,238.1z"/>
		<path class="st6" d="M352.4,249.7v28.9c0,3.4-3.1,5.4-6.2,5.4c-2.7,0-5.1-2-5.1-5.4v-44c0-4.1,3.8-5.4,5.1-5.4
			c2.5,0,3.9,1.3,5.4,2.8l18.8,23.2l19.5-24c2.8-3.2,9.8-1.9,9.8,3.4v43.9c0,3.4-2.4,5.4-5.1,5.4c-3.1,0-5.5-2-5.5-5.4v-28.8
			l-14.2,16.4c-3.1,3.4-6.9,3.4-9.7,0L352.4,249.7z"/>
		<g>
			<path class="st7" d="M196.5,229.5c-2.4-1.2-3.4-4.2-2.2-6.6l0,0c10.1-19.8,30.2-33.7,53.6-35.1l0,0c2.7-0.2,5,1.9,5.2,4.6l0,0
				c0.2,2.7-1.9,5-4.6,5.2l0,0c-19.9,1.1-36.9,12.9-45.4,29.7l0,0c-0.9,1.7-2.6,2.7-4.4,2.7l0,0
				C197.9,230.1,197.2,229.9,196.5,229.5L196.5,229.5z"/>
		</g>
		<g>
			<path class="st7" d="M251.6,316.3c-15.4,0-29.7-5.5-40.7-14.5l0,0c-2.1-1.7-2.4-4.8-0.7-6.9l0,0c1.7-2.1,4.8-2.4,6.9-0.7l0,0
				c9.4,7.7,21.4,12.3,34.5,12.3l0,0c13.3,0,25.5-4.8,34.9-12.7l0,0l0,0c2.1-1.8,5.2-1.5,6.9,0.6l0,0c1.7,2.1,1.5,5.2-0.6,6.9l0,0
				C281.7,310.7,267.3,316.3,251.6,316.3L251.6,316.3L251.6,316.3L251.6,316.3z"/>
		</g>
		<path class="st8" d="M289.5,200.2c0,6.1-4.9,11-11,11s-11-4.9-11-11s4.9-11,11-11S289.5,194.1,289.5,200.2z"/>
	</g>
</g>
</svg>
